<svg version="1.1" id="Layer_1" xmlns="http://www.w3.org/2000/svg" xmlns:xlink="http://www.w3.org/1999/xlink" x="0px" y="0px"
	 width="100%" viewBox="0 0 776 177" enable-background="new 0 0 776 177" xml:space="preserve">
<path fill="#04040400" opacity="1.000000" stroke="none" 
	d="
M689.000000,178.000000 
	C459.718842,178.000000 230.437714,178.000000 1.078284,178.000000 
	C1.078284,119.065704 1.078284,60.131279 1.078284,1.098424 
	C259.666656,1.098424 518.333313,1.098424 776.956909,1.098424 
	C776.956909,60.084309 776.956909,119.042175 776.956909,178.000000 
	C750.919922,178.000000 724.926025,178.000000 698.209595,177.631256 
	C699.379700,176.811020 701.249512,176.178375 703.168518,175.937393 
	C715.658752,174.368896 726.957092,169.760849 737.077209,162.391815 
	C768.957275,139.178146 780.960205,94.855934 766.198486,58.195431 
	C754.578613,29.337534 725.367554,4.784651 687.934998,7.898540 
	C656.440918,10.518426 634.709045,26.751553 621.978088,55.380161 
	C618.636169,62.895126 616.479797,70.763359 615.962036,79.518402 
	C636.088562,65.747963 636.088562,65.747963 654.064819,66.379875 
	C659.979797,43.691517 663.923950,37.632118 675.513245,30.745464 
	C688.282837,23.157459 710.601196,24.572527 716.884827,31.794849 
	C716.004089,35.444557 714.035889,34.728645 711.356812,33.545040 
	C697.642090,27.485968 684.480042,28.941023 672.883545,38.274422 
	C655.087952,52.597214 654.285706,82.693237 671.782043,99.674454 
	C679.911133,107.564232 690.054565,113.368256 699.180359,120.256180 
	C700.191895,121.019623 700.515991,122.693695 701.158875,123.945450 
	C699.748901,123.987312 698.054871,124.556595 696.979492,123.977333 
	C692.890503,121.774872 688.890442,119.363159 685.057007,116.737930 
	C669.783081,106.277962 657.504944,93.678131 654.756592,74.199364 
	C654.582397,72.964836 652.333435,71.259476 650.889587,71.082993 
	C631.317749,68.690628 614.794800,81.551056 611.793213,101.202835 
	C608.779480,120.933937 616.788269,136.709076 629.921265,150.321167 
	C645.101318,166.054962 664.049011,174.165558 685.693115,176.311462 
	C686.839905,176.425140 687.899719,177.416977 689.000000,178.000000 
M15.174897,127.359818 
	C15.290284,127.940025 15.405672,128.520233 15.521060,129.100449 
	C16.032629,128.413208 16.544199,127.725975 17.568789,126.532646 
	C28.955215,97.314796 40.415619,68.125160 51.590328,38.826557 
	C52.503296,36.432877 52.313023,32.887131 51.194324,30.573492 
	C45.671837,19.152143 33.674114,13.470231 20.400951,14.999943 
	C16.443913,15.455984 15.039628,16.891748 15.111038,20.918678 
	C15.329527,33.239498 15.157818,45.566769 15.196787,57.891338 
	C15.269441,80.869514 15.383646,103.847557 15.174897,127.359818 
M550.064697,154.521774 
	C551.244873,155.131454 552.374329,156.088638 553.616943,156.269867 
	C555.510193,156.545944 557.481689,156.284958 559.419983,156.252045 
	C558.470337,154.605057 557.656067,152.858444 556.535889,151.337112 
	C555.226440,149.558792 553.650146,147.976974 552.189697,146.309906 
	C554.127991,146.529388 556.081543,147.006744 558.000000,146.892563 
	C559.760132,146.787781 561.482239,146.045120 563.221130,145.583527 
	C562.297546,144.190323 561.689026,142.230698 560.391846,141.508987 
	C556.334167,139.251511 552.009949,137.475143 547.801453,135.486038 
	C543.690735,133.543137 539.595337,131.567932 535.110229,129.423813 
	C544.611023,116.913727 553.672302,105.225983 562.465881,93.340134 
	C572.853210,79.300056 583.899292,65.638184 593.046753,50.816814 
	C605.325989,30.921223 593.391541,11.177121 569.896790,11.066322 
	C546.730835,10.957073 523.558716,10.746455 500.399414,11.155298 
	C486.491394,11.400825 474.398682,16.328285 465.974731,28.195047 
	C465.403015,29.000427 464.439911,29.527962 462.839447,30.873661 
	C463.993622,25.768538 465.106384,21.818741 465.683838,17.792175 
	C465.900879,16.278864 464.875427,14.587379 464.416443,12.977127 
	C463.177155,14.046108 461.789490,14.990345 460.749908,16.227175 
	C460.035980,17.076611 460.047424,18.577765 459.283966,19.330502 
	C458.650543,19.954998 457.358978,19.911985 456.020508,20.250214 
	C456.188446,18.894138 456.271362,18.404493 456.306427,17.911442 
	C456.497559,15.222944 457.268036,10.327727 456.766846,10.193420 
	C452.745636,9.115858 453.153320,13.232780 451.680511,15.331584 
	C451.158203,16.075855 449.925079,16.321287 449.016449,16.794443 
	C448.825775,15.922909 448.306000,14.963240 448.510986,14.197649 
	C448.980255,12.445317 450.011871,10.833276 450.396271,9.072812 
	C450.591461,8.178700 450.048279,6.353915 449.542450,6.237468 
	C448.510681,5.999936 446.854645,6.264051 446.220245,6.989785 
	C445.050659,8.327802 444.599640,10.274385 443.511383,11.711635 
	C442.994263,12.394585 441.700287,12.489315 440.758240,12.850513 
	C440.615143,11.973138 440.221954,11.042462 440.394592,10.232374 
	C440.593903,9.297075 441.555420,8.512723 441.713043,7.582684 
	C441.960205,6.123921 441.811066,4.597993 441.829773,3.100505 
	C440.298340,3.642053 438.228912,3.734679 437.333862,4.807264 
	C434.358276,8.373254 431.216705,12.007133 429.219666,16.137573 
	C425.760468,23.292208 420.189545,23.936852 413.534119,22.659960 
	C413.370850,22.628633 413.203766,22.615377 413.037903,22.599453 
	C383.391724,19.752855 353.768982,16.621862 324.090057,14.171527 
	C307.284851,12.784061 298.882477,19.831078 295.582092,36.711884 
	C295.006378,35.807598 294.548645,35.163029 294.166046,34.476585 
	C286.645935,20.985888 274.411407,17.507622 260.185333,18.869707 
	C247.010635,20.131126 238.064468,27.180309 233.524094,39.702782 
	C231.414169,45.522018 231.615845,45.706669 237.248016,47.974606 
	C247.067429,51.928650 254.125946,58.676815 257.323151,69.438995 
	C255.547073,69.427498 253.985229,68.934586 252.944489,67.911552 
	C251.920288,66.904770 251.516708,65.298233 250.682770,64.061432 
	C241.844482,50.953472 222.989029,46.098492 206.315720,52.289379 
	C194.676392,56.611115 183.028366,69.863724 185.783478,88.298523 
	C186.333572,91.979218 186.276245,91.987785 181.910416,92.603271 
	C179.134811,82.973320 180.707108,73.800163 185.300964,65.183556 
	C192.361267,51.940693 204.255325,46.232380 218.905167,45.169411 
	C218.905167,37.811035 219.064819,30.822348 218.855133,23.844757 
	C218.684570,18.168951 214.777985,14.074404 208.949570,14.003503 
	C190.286362,13.776475 171.619019,13.837266 152.953979,13.929996 
	C151.753372,13.935961 150.558792,15.154839 149.361404,15.809483 
	C150.391937,16.901915 151.263428,18.667017 152.484024,18.955603 
	C155.639740,19.701710 158.949509,19.796282 162.197754,20.151030 
	C161.536484,21.666491 160.522156,22.520309 159.413620,22.668289 
	C157.280243,22.953072 155.025803,22.534315 152.952774,22.996191 
	C151.570129,23.304253 150.414398,24.630894 149.157104,25.501667 
	C150.350388,26.408560 151.439468,27.861437 152.757828,28.113098 
	C155.875427,28.708212 159.102036,28.732309 162.284561,28.987293 
	C162.331543,29.618181 162.378525,30.249071 162.425507,30.879959 
	C159.646179,31.150545 156.812622,31.177515 154.107147,31.779835 
	C152.386063,32.162994 150.855087,33.400188 149.238876,34.254425 
	C150.885590,35.283939 152.416367,36.805706 154.206268,37.227333 
	C156.876175,37.856247 159.728775,37.709518 162.503647,37.892796 
	C162.533386,38.428478 162.563126,38.964161 162.592865,39.499844 
	C161.313293,39.809830 160.048691,40.252731 158.750671,40.398846 
	C156.772446,40.621536 154.714157,40.391529 152.800095,40.832340 
	C151.571793,41.115219 150.541489,42.257862 149.422440,43.015110 
	C150.583542,43.694061 151.701202,44.847771 152.914291,44.958809 
	C155.982590,45.239670 159.093781,45.051968 162.603195,45.051968 
	C162.603195,62.327282 162.437988,78.966316 162.664551,95.600014 
	C162.802597,105.734077 162.565460,116.023476 164.224777,125.954384 
	C167.385956,144.873993 177.278778,159.608612 195.040771,168.116776 
	C216.579422,178.433945 238.514267,177.834808 260.456421,169.614914 
	C282.518158,161.350220 300.516663,141.137939 299.222992,112.190376 
	C298.382996,93.394737 299.059906,74.531067 299.075287,55.697895 
	C299.076416,54.331806 299.225372,52.965839 299.360474,50.665668 
	C311.462097,70.906929 331.004456,81.678474 346.828796,95.417641 
	C350.459351,91.171776 353.831543,86.973969 357.543213,83.101540 
	C358.285797,82.326813 360.322571,82.792542 361.762573,82.686295 
	C361.178741,84.006607 360.961823,85.915619 359.948669,86.547012 
	C355.139404,89.544159 352.721741,93.971954 352.253815,99.312752 
	C351.645325,106.258362 351.463104,113.250031 351.330444,120.226295 
	C351.182648,127.998093 351.296570,135.774872 351.296570,143.526978 
	C348.352051,144.116211 345.414215,144.704117 342.476379,145.292023 
	C342.504059,146.023575 342.531738,146.755112 342.559418,147.486664 
	C346.321838,148.115265 350.084259,148.743866 353.846680,149.372467 
	C352.724091,150.931854 351.590424,151.316925 350.431702,151.598801 
	C347.813416,152.235703 344.276459,150.120239 342.805145,154.167694 
	C345.288452,154.950943 347.769440,155.741760 350.256073,156.514252 
	C351.504364,156.902039 352.763031,157.256454 354.016998,157.625977 
	C353.963440,158.088699 353.909882,158.551437 353.856323,159.014160 
	C351.155762,159.278931 348.399628,159.306076 345.780548,159.919067 
	C344.646149,160.184586 343.794434,161.657959 342.814301,162.582687 
	C343.832428,163.296906 344.772400,164.435135 345.884430,164.640167 
	C348.474518,165.117722 351.147491,165.146011 354.471832,165.410919 
	C350.970062,170.409821 344.440979,164.995972 341.853638,171.087112 
	C343.716125,171.522751 345.255280,172.191315 346.796753,172.196655 
	C367.129669,172.267105 387.463104,172.200043 407.795837,172.291641 
	C410.878265,172.305542 411.844971,171.138016 411.807098,168.166748 
	C411.683899,158.501724 411.776306,148.834076 411.729736,139.167709 
	C411.725403,138.269592 411.324524,137.373367 411.094421,136.420990 
	C407.451843,137.541626 404.171753,138.800446 400.775116,139.449936 
	C399.697510,139.656006 398.309357,138.237808 397.063293,137.562912 
	C397.974731,136.689636 398.746948,135.317841 399.818665,135.018600 
	C413.708588,131.140274 422.257568,117.835663 420.040833,103.455307 
	C418.525543,93.625496 412.845612,86.850555 404.469666,82.110603 
	C401.527893,80.445854 400.992706,78.917992 404.392181,76.180054 
	C408.362610,79.320061 412.820862,82.074043 416.252594,85.778915 
	C419.623840,89.418510 421.952332,94.023941 424.881256,98.419907 
	C429.910950,93.696861 431.440125,88.020210 429.932465,81.559921 
	C428.567963,75.713120 424.926666,72.307076 418.876617,70.791649 
	C397.277161,65.381386 375.759583,59.643665 354.216888,54.007511 
	C348.173431,52.426380 342.150055,50.768528 336.274902,49.188210 
	C336.447601,44.354450 338.825775,45.226727 341.466492,45.917664 
	C370.083710,53.405373 398.615204,61.262585 427.393005,68.077850 
	C443.195862,71.820343 453.577881,68.134644 458.115173,52.036766 
	C458.174103,51.827713 458.559143,51.710579 458.961914,51.433720 
	C459.262085,53.497623 459.512421,55.466877 459.838684,57.423462 
	C462.927155,75.943062 480.459930,88.404175 498.843170,85.679855 
	C512.007629,83.728935 523.006042,77.539230 533.040527,69.395950 
	C540.755188,63.135311 548.031006,56.333977 555.458923,49.810879 
	C558.314209,51.207008 558.422424,52.759933 556.195984,54.776077 
	C553.360352,57.343746 550.678467,60.080181 547.874756,62.684090 
	C536.850586,72.922775 525.212219,82.208298 510.857758,87.557396 
	C508.581177,88.405754 506.273987,90.221901 504.881165,92.218575 
	C496.905792,103.651611 489.181122,115.260139 481.414368,126.837921 
	C476.500458,134.162979 471.537903,141.459976 466.817413,148.909134 
	C459.545471,160.384598 467.451416,174.062683 480.824219,173.533356 
	C502.290436,172.683701 523.814880,173.318924 545.314636,173.281738 
	C547.175293,173.278519 549.035400,172.941101 550.895813,172.758926 
	C551.044312,172.269806 551.192810,171.780670 551.341309,171.291550 
	C548.972717,169.717270 546.514587,168.256592 544.288147,166.501907 
	C543.588806,165.950760 543.512207,164.609528 543.150574,163.629929 
	C544.146240,163.421219 545.247192,162.836090 546.116577,163.079086 
	C548.174072,163.654175 550.082092,164.755661 552.133667,165.364517 
	C552.917297,165.597092 553.927551,165.065933 554.834473,164.882843 
	C554.602783,163.848541 554.714783,162.426468 554.071594,161.856491 
	C552.479675,160.445618 550.541321,159.425919 548.743713,158.246628 
	C546.018494,156.458725 546.035217,155.087036 550.064697,154.521774 
M73.919075,86.564590 
	C73.919868,84.731888 73.981346,82.896751 73.908028,81.067024 
	C73.780487,77.884117 75.315155,77.533478 78.194183,78.543648 
	C78.194183,80.479759 78.194191,82.290474 78.194183,84.101196 
	C78.194107,107.925652 78.347054,131.751892 78.068512,155.573105 
	C78.010811,160.507553 80.014336,163.462128 83.837723,165.637070 
	C94.364403,171.625198 105.716019,173.125153 117.592270,171.555847 
	C127.190842,170.287521 135.452118,166.345917 141.781586,158.945648 
	C157.204147,140.913956 156.305801,110.800514 138.672470,93.821381 
	C119.753830,75.604630 100.017990,58.205818 80.137123,41.030750 
	C68.332291,30.832571 57.795212,34.170082 52.215015,48.724770 
	C41.637486,76.313866 30.819981,103.813789 20.577013,131.526260 
	C18.091909,138.249741 15.527381,143.078659 7.313073,141.917953 
	C6.270088,141.770584 4.962001,143.499344 3.776733,144.358902 
	C4.994797,145.249420 6.097895,146.463730 7.460382,146.947525 
	C9.118968,147.536453 10.995893,147.510498 12.778377,147.750504 
	C12.775660,148.295609 12.772943,148.840729 12.770226,149.385834 
	C10.803467,149.615799 8.739345,149.558990 6.905854,150.181488 
	C5.775162,150.565353 4.996145,151.985046 4.059237,152.939697 
	C5.030862,153.622864 5.915739,154.626022 6.993368,154.918167 
	C8.855639,155.423019 10.837569,155.486481 12.769300,155.735123 
	C12.759096,156.305130 12.748893,156.875153 12.738688,157.445175 
	C10.942346,157.663544 9.030142,157.575745 7.386526,158.197708 
	C6.084510,158.690414 5.111865,160.053497 3.992963,161.030090 
	C5.110923,161.993073 6.085945,163.335052 7.382651,163.824112 
	C9.042321,164.450073 10.961148,164.388885 12.768301,164.623810 
	C12.775858,165.160873 12.783416,165.697952 12.790973,166.235016 
	C11.346319,166.467911 9.792732,166.444153 8.484865,166.999313 
	C6.884706,167.678482 5.490461,168.842789 4.007175,169.797333 
	C5.600095,170.613510 7.183946,171.448441 8.794814,172.227509 
	C9.065088,172.358231 9.452355,172.247589 9.785563,172.247604 
	C27.945461,172.247955 46.105438,172.278946 64.265221,172.234406 
	C72.287125,172.214722 73.905098,170.553970 73.911453,162.522980 
	C73.931236,137.532303 73.918938,112.541603 73.919075,86.564590 
M567.938477,139.587341 
	C570.679321,140.773331 573.484497,141.836929 576.120483,143.222412 
	C576.878906,143.621017 577.149536,144.947708 577.643799,145.848923 
	C576.597534,146.338745 575.436157,147.390533 574.528320,147.204590 
	C572.464844,146.781998 570.526001,145.751083 568.683716,145.025391 
	C566.875305,147.419327 565.140381,149.715973 563.405457,152.012619 
	C564.210938,154.910995 564.400574,157.884735 563.326660,160.295563 
	C561.590027,164.194138 559.022583,167.722672 556.467468,171.970306 
	C567.725281,171.970306 577.890442,172.425766 587.992676,171.824509 
	C595.905884,171.353516 603.372620,168.665085 608.559326,162.058792 
	C615.308594,153.462280 615.555420,138.898666 609.069214,128.144836 
	C599.446350,112.190552 583.095520,103.852150 568.899536,92.117424 
	C559.710876,104.279419 550.982605,115.832024 541.836121,127.938225 
	C550.937317,131.986023 559.097900,135.615509 567.938477,139.587341 
z"/>
<path fill="#FDFDFD" opacity="1.000000" stroke="none" 
	d="
M689.449951,178.000000 
	C687.899719,177.416977 686.839905,176.425140 685.693115,176.311462 
	C664.049011,174.165558 645.101318,166.054962 629.921265,150.321167 
	C616.788269,136.709076 608.779480,120.933937 611.793213,101.202835 
	C614.794800,81.551056 631.317749,68.690628 650.889587,71.082993 
	C652.333435,71.259476 654.582397,72.964836 654.756592,74.199364 
	C657.504944,93.678131 669.783081,106.277962 685.057007,116.737930 
	C688.890442,119.363159 692.890503,121.774872 696.979492,123.977333 
	C698.054871,124.556595 699.748901,123.987312 701.158875,123.945450 
	C700.515991,122.693695 700.191895,121.019623 699.180359,120.256180 
	C690.054565,113.368256 679.911133,107.564232 671.782043,99.674454 
	C654.285706,82.693237 655.087952,52.597214 672.883545,38.274422 
	C684.480042,28.941023 697.642090,27.485968 711.356812,33.545040 
	C714.035889,34.728645 716.004089,35.444557 716.884827,31.794849 
	C710.601196,24.572527 688.282837,23.157459 675.513245,30.745464 
	C663.923950,37.632118 659.979797,43.691517 654.064819,66.379875 
	C636.088562,65.747963 636.088562,65.747963 615.962036,79.518402 
	C616.479797,70.763359 618.636169,62.895126 621.978088,55.380161 
	C634.709045,26.751553 656.440918,10.518426 687.934998,7.898540 
	C725.367554,4.784651 754.578613,29.337534 766.198486,58.195431 
	C780.960205,94.855934 768.957275,139.178146 737.077209,162.391815 
	C726.957092,169.760849 715.658752,174.368896 703.168518,175.937393 
	C701.249512,176.178375 699.379700,176.811020 697.743530,177.631256 
	C695.299988,178.000000 692.599976,178.000000 689.449951,178.000000 
z"/>
<path fill="#FDFDFD" opacity="1.000000" stroke="none" 
	d="
M549.711365,154.371368 
	C546.035217,155.087036 546.018494,156.458725 548.743713,158.246628 
	C550.541321,159.425919 552.479675,160.445618 554.071594,161.856491 
	C554.714783,162.426468 554.602783,163.848541 554.834473,164.882843 
	C553.927551,165.065933 552.917297,165.597092 552.133667,165.364517 
	C550.082092,164.755661 548.174072,163.654175 546.116577,163.079086 
	C545.247192,162.836090 544.146240,163.421219 543.150574,163.629913 
	C543.512207,164.609528 543.588806,165.950760 544.288147,166.501907 
	C546.514587,168.256592 548.972717,169.717270 551.341309,171.291550 
	C551.192810,171.780670 551.044312,172.269806 550.895813,172.758926 
	C549.035400,172.941101 547.175293,173.278519 545.314636,173.281738 
	C523.814880,173.318924 502.290436,172.683701 480.824219,173.533356 
	C467.451416,174.062683 459.545471,160.384598 466.817413,148.909134 
	C471.537903,141.459976 476.500458,134.162979 481.414368,126.837921 
	C489.181122,115.260139 496.905792,103.651611 504.881165,92.218575 
	C506.273987,90.221901 508.581177,88.405754 510.857758,87.557396 
	C525.212219,82.208298 536.850586,72.922775 547.874756,62.684090 
	C550.678467,60.080181 553.360352,57.343746 556.195984,54.776077 
	C558.422424,52.759933 558.314209,51.207008 555.458923,49.810879 
	C548.031006,56.333977 540.755188,63.135311 533.040527,69.395950 
	C523.006042,77.539230 512.007629,83.728935 498.843170,85.679855 
	C480.459930,88.404175 462.927155,75.943062 459.838684,57.423462 
	C459.512421,55.466877 459.262085,53.497623 458.961914,51.433720 
	C458.559143,51.710579 458.174103,51.827713 458.115173,52.036766 
	C453.577881,68.134644 443.195862,71.820343 427.393005,68.077850 
	C398.615204,61.262585 370.083710,53.405373 341.466492,45.917664 
	C338.825775,45.226727 336.447601,44.354450 336.274902,49.188210 
	C342.150055,50.768528 348.173431,52.426380 354.216888,54.007511 
	C375.759583,59.643665 397.277161,65.381386 418.876617,70.791649 
	C424.926666,72.307076 428.567963,75.713120 429.932465,81.559921 
	C431.440125,88.020210 429.910950,93.696861 424.881256,98.419907 
	C421.952332,94.023941 419.623840,89.418510 416.252594,85.778915 
	C412.820862,82.074043 408.362610,79.320061 404.392181,76.180054 
	C400.992706,78.917992 401.527893,80.445854 404.469666,82.110603 
	C412.845612,86.850555 418.525543,93.625496 420.040833,103.455307 
	C422.257568,117.835663 413.708588,131.140274 399.818665,135.018600 
	C398.746948,135.317841 397.974731,136.689636 397.063293,137.562912 
	C398.309357,138.237808 399.697510,139.656006 400.775116,139.449936 
	C404.171753,138.800446 407.451843,137.541626 411.094421,136.420990 
	C411.324524,137.373367 411.725403,138.269592 411.729736,139.167709 
	C411.776306,148.834076 411.683899,158.501724 411.807098,168.166748 
	C411.844971,171.138016 410.878265,172.305542 407.795837,172.291641 
	C387.463104,172.200043 367.129669,172.267105 346.796753,172.196655 
	C345.255280,172.191315 343.716125,171.522751 341.853638,171.087112 
	C344.440979,164.995972 350.970062,170.409821 354.471832,165.410919 
	C351.147491,165.146011 348.474518,165.117722 345.884430,164.640167 
	C344.772400,164.435135 343.832428,163.296906 342.814301,162.582703 
	C343.794434,161.657959 344.646149,160.184586 345.780548,159.919067 
	C348.399628,159.306076 351.155762,159.278931 353.856323,159.014160 
	C353.909882,158.551437 353.963440,158.088699 354.016998,157.625977 
	C352.763031,157.256454 351.504364,156.902039 350.256073,156.514252 
	C347.769440,155.741760 345.288452,154.950943 342.805145,154.167694 
	C344.276459,150.120239 347.813416,152.235703 350.431702,151.598801 
	C351.590424,151.316925 352.724091,150.931854 353.846680,149.372467 
	C350.084259,148.743866 346.321838,148.115265 342.559418,147.486664 
	C342.531738,146.755112 342.504059,146.023575 342.476379,145.292023 
	C345.414215,144.704117 348.352051,144.116211 351.296570,143.526978 
	C351.296570,135.774872 351.182648,127.998093 351.330444,120.226295 
	C351.463104,113.250031 351.645325,106.258362 352.253815,99.312752 
	C352.721741,93.971954 355.139404,89.544159 359.948669,86.547012 
	C360.961823,85.915619 361.178741,84.006607 361.762573,82.686295 
	C360.322571,82.792542 358.285797,82.326813 357.543213,83.101540 
	C353.831543,86.973969 350.459351,91.171776 346.828796,95.417641 
	C331.004456,81.678474 311.462097,70.906929 299.360474,50.665668 
	C299.225372,52.965839 299.076416,54.331806 299.075287,55.697895 
	C299.059906,74.531067 298.382996,93.394737 299.222992,112.190376 
	C300.516663,141.137939 282.518158,161.350220 260.456421,169.614914 
	C238.514267,177.834808 216.579422,178.433945 195.040771,168.116776 
	C177.278778,159.608612 167.385956,144.873993 164.224777,125.954384 
	C162.565460,116.023476 162.802597,105.734077 162.664551,95.600014 
	C162.437988,78.966316 162.603195,62.327282 162.603195,45.051968 
	C159.093781,45.051968 155.982590,45.239670 152.914291,44.958809 
	C151.701202,44.847771 150.583542,43.694061 149.422440,43.015110 
	C150.541489,42.257862 151.571793,41.115219 152.800095,40.832340 
	C154.714157,40.391529 156.772446,40.621536 158.750671,40.398846 
	C160.048691,40.252731 161.313293,39.809830 162.592865,39.499844 
	C162.563126,38.964161 162.533386,38.428478 162.503647,37.892796 
	C159.728775,37.709518 156.876175,37.856247 154.206268,37.227333 
	C152.416367,36.805706 150.885590,35.283939 149.238876,34.254425 
	C150.855087,33.400188 152.386063,32.162994 154.107147,31.779835 
	C156.812622,31.177515 159.646179,31.150545 162.425507,30.879959 
	C162.378525,30.249071 162.331543,29.618181 162.284561,28.987293 
	C159.102036,28.732309 155.875427,28.708212 152.757828,28.113098 
	C151.439468,27.861437 150.350388,26.408560 149.157104,25.501671 
	C150.414398,24.630894 151.570129,23.304253 152.952774,22.996191 
	C155.025803,22.534315 157.280243,22.953072 159.413620,22.668289 
	C160.522156,22.520309 161.536484,21.666491 162.197754,20.151030 
	C158.949509,19.796282 155.639740,19.701710 152.484024,18.955603 
	C151.263428,18.667017 150.391937,16.901915 149.361404,15.809484 
	C150.558792,15.154839 151.753372,13.935961 152.953979,13.929996 
	C171.619019,13.837266 190.286362,13.776475 208.949570,14.003503 
	C214.777985,14.074404 218.684570,18.168951 218.855133,23.844757 
	C219.064819,30.822348 218.905167,37.811035 218.905167,45.169411 
	C204.255325,46.232380 192.361267,51.940693 185.300964,65.183556 
	C180.707108,73.800163 179.134811,82.973320 181.910416,92.603271 
	C186.276245,91.987785 186.333572,91.979218 185.783478,88.298523 
	C183.028366,69.863724 194.676392,56.611115 206.315720,52.289379 
	C222.989029,46.098492 241.844482,50.953472 250.682770,64.061432 
	C251.516708,65.298233 251.920288,66.904770 252.944489,67.911552 
	C253.985229,68.934586 255.547073,69.427498 257.323151,69.438995 
	C254.125946,58.676815 247.067429,51.928650 237.248016,47.974606 
	C231.615845,45.706669 231.414169,45.522018 233.524094,39.702782 
	C238.064468,27.180309 247.010635,20.131126 260.185333,18.869707 
	C274.411407,17.507622 286.645935,20.985888 294.166046,34.476585 
	C294.548645,35.163029 295.006378,35.807598 295.582092,36.711884 
	C298.882477,19.831078 307.284851,12.784061 324.090057,14.171527 
	C353.768982,16.621862 383.391724,19.752855 413.037903,22.599453 
	C413.203766,22.615377 413.370850,22.628633 413.534119,22.659960 
	C420.189545,23.936852 425.760468,23.292208 429.219666,16.137573 
	C431.216705,12.007133 434.358276,8.373254 437.333862,4.807264 
	C438.228912,3.734679 440.298340,3.642053 441.829773,3.100508 
	C441.811066,4.597993 441.960205,6.123921 441.713043,7.582684 
	C441.555420,8.512723 440.593903,9.297075 440.394592,10.232374 
	C440.221954,11.042462 440.615143,11.973138 440.758240,12.850517 
	C441.700287,12.489315 442.994263,12.394585 443.511383,11.711635 
	C444.599640,10.274385 445.050659,8.327802 446.220245,6.989785 
	C446.854645,6.264051 448.510681,5.999936 449.542450,6.237468 
	C450.048279,6.353915 450.591461,8.178700 450.396271,9.072812 
	C450.011871,10.833276 448.980255,12.445317 448.510986,14.197649 
	C448.306000,14.963240 448.825775,15.922909 449.016449,16.794441 
	C449.925079,16.321287 451.158203,16.075855 451.680511,15.331584 
	C453.153320,13.232780 452.745636,9.115858 456.766846,10.193420 
	C457.268036,10.327727 456.497559,15.222944 456.306427,17.911442 
	C456.271362,18.404493 456.188446,18.894138 456.020508,20.250214 
	C457.358978,19.911985 458.650543,19.954998 459.283966,19.330502 
	C460.047424,18.577765 460.035980,17.076611 460.749908,16.227175 
	C461.789490,14.990345 463.177155,14.046108 464.416443,12.977125 
	C464.875427,14.587379 465.900879,16.278864 465.683838,17.792175 
	C465.106384,21.818741 463.993622,25.768538 462.839447,30.873661 
	C464.439911,29.527962 465.403015,29.000427 465.974731,28.195047 
	C474.398682,16.328285 486.491394,11.400825 500.399414,11.155298 
	C523.558716,10.746455 546.730835,10.957073 569.896790,11.066322 
	C593.391541,11.177121 605.325989,30.921223 593.046753,50.816814 
	C583.899292,65.638184 572.853210,79.300056 562.465881,93.340134 
	C553.672302,105.225983 544.611023,116.913727 535.110229,129.423813 
	C539.595337,131.567932 543.690735,133.543137 547.801453,135.486038 
	C552.009949,137.475143 556.334167,139.251511 560.391846,141.508987 
	C561.689026,142.230698 562.297546,144.190323 563.221130,145.583527 
	C561.482239,146.045120 559.760132,146.787781 558.000000,146.892563 
	C556.081543,147.006744 554.127991,146.529388 552.189697,146.309906 
	C553.650146,147.976974 555.226440,149.558792 556.535889,151.337112 
	C557.656067,152.858444 558.470337,154.605057 559.419983,156.252045 
	C557.481689,156.284958 555.510193,156.545944 553.616943,156.269867 
	C552.374329,156.088638 551.244873,155.131454 549.711365,154.371368 
z"/>
<path fill="#FDFDFD" opacity="1.000000" stroke="none" 
	d="
M73.919083,87.057755 
	C73.918938,112.541603 73.931236,137.532303 73.911453,162.522980 
	C73.905098,170.553970 72.287125,172.214722 64.265221,172.234406 
	C46.105438,172.278946 27.945461,172.247955 9.785563,172.247604 
	C9.452355,172.247589 9.065088,172.358231 8.794814,172.227509 
	C7.183946,171.448441 5.600095,170.613510 4.007178,169.797333 
	C5.490461,168.842789 6.884706,167.678482 8.484865,166.999313 
	C9.792732,166.444153 11.346319,166.467911 12.790973,166.235016 
	C12.783416,165.697952 12.775858,165.160873 12.768301,164.623810 
	C10.961148,164.388885 9.042321,164.450073 7.382651,163.824112 
	C6.085945,163.335052 5.110923,161.993073 3.992964,161.030090 
	C5.111865,160.053497 6.084510,158.690414 7.386526,158.197708 
	C9.030142,157.575745 10.942346,157.663544 12.738688,157.445175 
	C12.748893,156.875153 12.759096,156.305130 12.769300,155.735123 
	C10.837569,155.486481 8.855639,155.423019 6.993368,154.918167 
	C5.915739,154.626022 5.030862,153.622864 4.059238,152.939697 
	C4.996145,151.985046 5.775162,150.565353 6.905854,150.181488 
	C8.739345,149.558990 10.803467,149.615799 12.770226,149.385834 
	C12.772943,148.840729 12.775660,148.295609 12.778377,147.750504 
	C10.995893,147.510498 9.118968,147.536453 7.460382,146.947525 
	C6.097895,146.463730 4.994797,145.249420 3.776733,144.358902 
	C4.962001,143.499344 6.270088,141.770584 7.313073,141.917953 
	C15.527381,143.078659 18.091909,138.249741 20.577013,131.526260 
	C30.819981,103.813789 41.637486,76.313866 52.215015,48.724770 
	C57.795212,34.170082 68.332291,30.832571 80.137123,41.030750 
	C100.017990,58.205818 119.753830,75.604630 138.672470,93.821381 
	C156.305801,110.800514 157.204147,140.913956 141.781586,158.945648 
	C135.452118,166.345917 127.190842,170.287521 117.592270,171.555847 
	C105.716019,173.125153 94.364403,171.625198 83.837723,165.637070 
	C80.014336,163.462128 78.010811,160.507553 78.068512,155.573105 
	C78.347054,131.751892 78.194107,107.925652 78.194183,84.101196 
	C78.194191,82.290474 78.194183,80.479759 78.194183,78.543648 
	C75.315155,77.533478 73.780487,77.884117 73.908028,81.067024 
	C73.981346,82.896751 73.919868,84.731888 73.919083,87.057755 
z"/>
<path fill="#FCFCFC" opacity="1.000000" stroke="none" 
	d="
M567.598511,139.416168 
	C559.097900,135.615509 550.937317,131.986023 541.836121,127.938225 
	C550.982605,115.832024 559.710876,104.279419 568.899536,92.117424 
	C583.095520,103.852150 599.446350,112.190552 609.069214,128.144836 
	C615.555420,138.898666 615.308594,153.462280 608.559326,162.058792 
	C603.372620,168.665085 595.905884,171.353516 587.992676,171.824509 
	C577.890442,172.425766 567.725281,171.970306 556.467468,171.970306 
	C559.022583,167.722672 561.590027,164.194138 563.326660,160.295563 
	C564.400574,157.884735 564.210938,154.910995 563.405457,152.012619 
	C565.140381,149.715973 566.875305,147.419327 568.683716,145.025391 
	C570.526001,145.751083 572.464844,146.781998 574.528320,147.204590 
	C575.436157,147.390533 576.597534,146.338745 577.643799,145.848907 
	C577.149536,144.947708 576.878906,143.621017 576.120483,143.222412 
	C573.484497,141.836929 570.679321,140.773331 567.598511,139.416168 
z"/>
<path fill="#FDFDFD" opacity="1.000000" stroke="none" 
	d="
M15.480557,126.825653 
	C15.383646,103.847557 15.269441,80.869514 15.196787,57.891338 
	C15.157818,45.566769 15.329527,33.239498 15.111038,20.918678 
	C15.039628,16.891748 16.443913,15.455984 20.400951,14.999943 
	C33.674114,13.470231 45.671837,19.152143 51.194324,30.573492 
	C52.313023,32.887131 52.503296,36.432877 51.590328,38.826557 
	C40.415619,68.125160 28.955215,97.314796 17.047276,126.737701 
	C16.177361,126.903732 15.828959,126.864693 15.480557,126.825653 
z"/>
<path fill="#ADADAD" opacity="1.000000" stroke="none" 
	d="
M15.327727,127.092735 
	C15.828959,126.864693 16.177361,126.903732 16.790764,126.990753 
	C16.544199,127.725975 16.032629,128.413208 15.521059,129.100449 
	C15.405672,128.520233 15.290284,127.940025 15.327727,127.092735 
z"/>
</svg>